<svg width="182" height="182" viewBox="0 0 182 182" fill="none" xmlns="http://www.w3.org/2000/svg">
<rect width="182" height="182" fill="#1E1E1E"/>
<g filter="url(#filter0_d_1_1105)">
<path d="M1 7.00001C1 3.6863 3.68629 1 7 1H175C178.314 1 181 3.68629 181 7V175C181 178.314 178.314 181 175 181H7.00001C3.6863 181 1 178.314 1 175V7.00001Z" fill="#F5F4F0" shape-rendering="crispEdges"/>
<g clip-path="url(#clip0_1_1105)">
<path fill-rule="evenodd" clip-rule="evenodd" d="M91.3485 30L101.515 93.5417L152.349 106.25L101.515 118.958L91.3485 152L81.1818 118.958L30.3485 106.25L81.1818 93.5417L91.3485 30ZM91.3485 98.625C89.3262 98.625 87.3868 99.4283 85.9568 100.858C84.5269 102.288 83.7235 104.228 83.7235 106.25C83.7235 108.272 84.5269 110.212 85.9568 111.642C87.3868 113.072 89.3262 113.875 91.3485 113.875C93.3708 113.875 95.3102 113.072 96.7402 111.642C98.1702 110.212 98.9735 108.272 98.9735 106.25C98.9735 104.228 98.1702 102.288 96.7402 100.858C95.3102 99.4283 93.3708 98.625 91.3485 98.625Z" fill="#2C2B29"/>
</g>
</g>
<defs>
<filter id="filter0_d_1_1105" x="0" y="0" width="182" height="182" filterUnits="userSpaceOnUse" color-interpolation-filters="sRGB">
<feFlood flood-opacity="0" result="BackgroundImageFix"/>
<feColorMatrix in="SourceAlpha" type="matrix" values="0 0 0 0 0 0 0 0 0 0 0 0 0 0 0 0 0 0 127 0" result="hardAlpha"/>
<feMorphology radius="1" operator="dilate" in="SourceAlpha" result="effect1_dropShadow_1_1105"/>
<feOffset/>
<feComposite in2="hardAlpha" operator="out"/>
<feColorMatrix type="matrix" values="0 0 0 0 0.172549 0 0 0 0 0.168627 0 0 0 0 0.160784 0 0 0 1 0"/>
<feBlend mode="normal" in2="BackgroundImageFix" result="effect1_dropShadow_1_1105"/>
<feBlend mode="normal" in="SourceGraphic" in2="effect1_dropShadow_1_1105" result="shape"/>
</filter>
<clipPath id="clip0_1_1105">
<rect width="122" height="122" fill="white" transform="translate(30.3485 30)"/>
</clipPath>
</defs>
</svg>
