<svg width="401" height="70" viewBox="0 0 401 70" fill="none" xmlns="http://www.w3.org/2000/svg">
<g clip-path="url(#clip0_4_2)">
<path fill-rule="evenodd" clip-rule="evenodd" d="M45.4644 -3.54999L51.2668 32.715L80.2788 39.968L51.2668 47.221L45.4644 66.0789L39.662 47.221L10.65 39.968L39.662 32.715L45.4644 -3.54999ZM45.4644 35.6162C44.3103 35.6162 43.2034 36.0747 42.3872 36.8909C41.5711 37.707 41.1126 38.8139 41.1126 39.968C41.1126 41.1222 41.5711 42.2291 42.3872 43.0452C43.2034 43.8614 44.3103 44.3198 45.4644 44.3198C46.6186 44.3198 47.7255 43.8614 48.5416 43.0452C49.3577 42.2291 49.8162 41.1222 49.8162 39.968C49.8162 38.8139 49.3577 37.707 48.5416 36.8909C47.7255 36.0747 46.6186 35.6162 45.4644 35.6162Z" fill="#2C2B29"/>
</g>
<path d="M114.754 51.8113L106.326 21.423H111.148L117.069 44.9561H117.35L123.508 21.423H128.286L134.444 44.9709H134.726L140.631 21.423H145.469L137.026 51.8113H132.411L126.016 29.0497H125.778L119.383 51.8113H114.754ZM160.051 51.8113H155.184L166.119 21.423H171.417L182.352 51.8113H177.485L168.894 26.9427H168.657L160.051 51.8113ZM160.867 39.9112H176.654V43.7691H160.867V39.9112ZM191.741 21.423H196.949L204.887 35.2372H205.214L213.152 21.423H218.36L207.336 39.8815V51.8113H202.766V39.8815L191.741 21.423ZM233.135 51.8113V21.423H243.967C246.331 21.423 248.29 21.8533 249.843 22.7139C251.396 23.5745 252.558 24.7517 253.33 26.2454C254.101 27.7292 254.487 29.4009 254.487 31.2606C254.487 33.1302 254.097 34.8118 253.315 36.3055C252.543 37.7893 251.376 38.9665 249.813 39.837C248.26 40.6976 246.307 41.1279 243.952 41.1279H236.504V37.2403H243.537C245.03 37.2403 246.242 36.9831 247.172 36.4688C248.102 35.9445 248.784 35.2323 249.22 34.3321C249.655 33.4319 249.873 32.4081 249.873 31.2606C249.873 30.1131 249.655 29.0943 249.22 28.204C248.784 27.3137 248.097 26.6163 247.157 26.1118C246.227 25.6073 245.001 25.3551 243.477 25.3551H237.72V51.8113H233.135ZM296.705 36.6171C296.705 39.8617 296.112 42.6513 294.925 44.9858C293.738 47.3104 292.11 49.1009 290.043 50.3572C287.985 51.6035 285.646 52.2267 283.024 52.2267C280.393 52.2267 278.044 51.6035 275.976 50.3572C273.919 49.1009 272.297 47.3055 271.11 44.9709C269.923 42.6364 269.329 39.8518 269.329 36.6171C269.329 33.3726 269.923 30.5879 271.11 28.2633C272.297 25.9288 273.919 24.1384 275.976 22.892C278.044 21.6357 280.393 21.0075 283.024 21.0075C285.646 21.0075 287.985 21.6357 290.043 22.892C292.11 24.1384 293.738 25.9288 294.925 28.2633C296.112 30.5879 296.705 33.3726 296.705 36.6171ZM292.165 36.6171C292.165 34.1441 291.764 32.0619 290.963 30.3703C290.171 28.6689 289.083 27.3829 287.698 26.5124C286.323 25.632 284.765 25.1919 283.024 25.1919C281.274 25.1919 279.711 25.632 278.336 26.5124C276.961 27.3829 275.873 28.6689 275.071 30.3703C274.28 32.0619 273.884 34.1441 273.884 36.6171C273.884 39.0901 274.28 41.1774 275.071 42.8788C275.873 44.5703 276.961 45.8563 278.336 46.7367C279.711 47.6072 281.274 48.0424 283.024 48.0424C284.765 48.0424 286.323 47.6072 287.698 46.7367C289.083 45.8563 290.171 44.5703 290.963 42.8788C291.764 41.1774 292.165 39.0901 292.165 36.6171ZM317.452 21.423V51.8113H312.867V21.423H317.452ZM359.103 21.423V51.8113H354.889L339.442 29.5246H339.16V51.8113H334.576V21.423H338.819L354.28 43.7394H354.562V21.423H359.103ZM374.738 25.3699V21.423H398.257V25.3699H388.775V51.8113H384.205V25.3699H374.738Z" fill="#2C2B29"/>
<defs>
<clipPath id="clip0_4_2">
<rect width="69.6288" height="69.6288" fill="white" transform="translate(9.46667)"/>
</clipPath>
</defs>
</svg>
